<svg xmlns="http://www.w3.org/2000/svg" aria-hidden="true" style="position:absolute;width:0;height:0;overflow:hidden">
    <defs>
        <symbol id="icon-favicon" viewBox="0 0 32 32">
            <path d="M31.923 14.443C31.062 5.633 23.21-.804 14.402.081 5.627.962-.78 8.779.078 17.557s8.658 15.205 17.438 14.371c8.812-.838 15.269-8.674 14.408-17.484zM19.996 3.775c.195-.001.341.039.523.089l.039.011c.071.357 0 .522-.187.826-.326.531-.69 1.04-1.053 1.549-.641.898-1.283 1.796-1.722 2.819-.953 2.218-.731 4.806-.506 7.42.196 2.288.395 4.597-.192 6.698-.705 2.527-2.476 4.18-4.693 5.412-.123.021-.259.01-.389 0l-.081-.006-.05-.003-.021-.041c-.126-.24-.134-.255-.043-.528.119-.355.355-.717.577-1.059q.13-.196.242-.381c.771-1.284 1.526-2.671 1.762-4.169.295-1.871.138-3.797-.019-5.722-.199-2.443-.399-4.887.326-7.22.891-2.866 2.976-4.36 5.486-5.694z"/>
        </symbol>
        <symbol id="icon-close" viewBox="0 0 32 32">
            <path d="M26.397 0 15.082 11.312 3.77 0-.001 3.771l11.312 11.312L-.001 26.395l3.771 3.771 11.312-11.312 11.315 11.312 3.771-3.771-11.312-11.312L30.168 3.771z"/>
        </symbol>
        <symbol id="icon-burger" viewBox="0 0 43 32">
            <path d="M0 0h42.667v5.333H0zm0 13.333h42.667v5.333H0zm0 13.334h42.667V32H0z"/>
        </symbol>
        <symbol id="icon-facebook" viewBox="0 0 32 32">
            <path d="M29.333 16.405C29.333 8.996 23.364 2.99 16 2.99S2.667 8.996 2.667 16.405c0 6.696 4.876 12.245 11.25 13.252v-9.374h-3.385v-3.878h3.385V13.45c0-3.362 1.991-5.219 5.036-5.219 1.459 0 2.985.262 2.985.262v3.301h-1.681c-1.656 0-2.173 1.034-2.173 2.095v2.516h3.698l-.591 3.878h-3.107v9.374c6.374-1.006 11.25-6.556 11.25-13.252z"/>
        </symbol>
        <symbol id="icon-instagram" viewBox="0 0 32 32">
            <path d="M15.998 6.161c3.206 0 3.585.014 4.846.071 1.172.052 1.804.248 2.226.412.558.216.961.478 1.378.895.422.422.679.82.9 1.378.164.422.361 1.059.412 2.226.056 1.266.071 1.645.071 4.847s-.014 3.585-.071 4.847c-.052 1.172-.248 1.804-.412 2.227a3.7 3.7 0 0 1-.895 1.377c-.422.422-.82.679-1.378.9-.422.164-1.06.361-2.226.412-1.266.056-1.645.071-4.847.071s-3.585-.014-4.847-.071c-1.172-.052-1.804-.248-2.226-.412a3.7 3.7 0 0 1-1.378-.895 3.8 3.8 0 0 1-.9-1.378c-.164-.422-.361-1.06-.412-2.226-.056-1.266-.071-1.645-.071-4.847s.014-3.585.071-4.847c.052-1.172.248-1.804.412-2.226.216-.558.478-.961.895-1.378.422-.422.82-.679 1.378-.9.422-.164 1.059-.361 2.226-.412 1.261-.056 1.641-.071 4.847-.071zm0-2.16c-3.258 0-3.665.014-4.945.071-1.275.056-2.151.262-2.91.558a5.85 5.85 0 0 0-2.127 1.387A5.9 5.9 0 0 0 4.629 8.14c-.295.764-.502 1.636-.558 2.91C4.015 12.335 4 12.742 4 15.999s.014 3.665.071 4.945c.056 1.275.262 2.151.558 2.91a5.9 5.9 0 0 0 1.387 2.127 5.9 5.9 0 0 0 2.123 1.383c.764.295 1.636.502 2.91.558 1.279.056 1.687.071 4.945.071s3.666-.014 4.945-.071c1.275-.056 2.151-.262 2.91-.558.787-.305 1.458-.717 2.123-1.383s1.078-1.336 1.383-2.123c.295-.764.502-1.635.558-2.91.056-1.279.071-1.687.071-4.945s-.014-3.665-.071-4.945c-.056-1.275-.262-2.151-.558-2.91a5.6 5.6 0 0 0-1.373-2.133 5.9 5.9 0 0 0-2.123-1.383c-.764-.295-1.635-.502-2.91-.558-1.284-.061-1.692-.075-4.949-.075L15.999 4z"/>
            <path d="M15.998 9.835a6.164 6.164 0 1 0 6.163 6.163 6.164 6.164 0 0 0-6.163-6.163m0 10.161a3.998 3.998 0 1 1 0-7.996 3.998 3.998 0 0 1 0 7.996M23.843 9.592a1.439 1.439 0 1 1-2.877 0 1.439 1.439 0 0 1 2.877 0"/>
        </symbol>
        <symbol id="icon-X" viewBox="0 0 32 32">
            <path d="M22.901 5.657h3.68l-8.04 9.037L28 26.991h-7.406l-5.801-7.458-6.637 7.458H4.474l8.6-9.666L4 5.657h7.594l5.243 6.817zM21.61 24.824h2.039L10.486 7.709H8.298z"/>
        </symbol>
        <symbol id="icon-email" viewBox="0 0 39 32">
            <path d="M34.909 0H3.879A3.883 3.883 0 0 0 0 3.879v23.273a3.883 3.883 0 0 0 3.879 3.879h31.03a3.883 3.883 0 0 0 3.879-3.879V3.879A3.883 3.883 0 0 0 34.909 0m0 3.879v.991L19.394 16.939 3.879 4.872v-.993zM3.879 27.152V9.783l14.324 11.142a1.93 1.93 0 0 0 2.382 0L34.909 9.783l.004 17.369z"/>
        </symbol>
        <symbol id="icon-office" viewBox="0 0 26 32">
            <path d="M12.642 18.963c3.486 0 6.321-2.835 6.321-6.321s-2.835-6.321-6.321-6.321-6.321 2.835-6.321 6.321 2.835 6.321 6.321 6.321m0-9.482c1.743 0 3.161 1.417 3.161 3.161s-1.417 3.16-3.161 3.16-3.16-1.417-3.16-3.16 1.417-3.161 3.16-3.161"/>
            <path d="M11.726 31.311a1.58 1.58 0 0 0 1.833 0c.48-.34 11.771-8.492 11.725-18.669C25.284 5.671 19.613 0 12.642 0S0 5.671 0 12.634c-.046 10.185 11.245 18.337 11.725 18.677zm.916-28.151c5.229 0 9.481 4.252 9.481 9.489.033 7.013-6.934 13.31-9.481 15.376-2.546-2.067-9.515-8.366-9.482-15.384 0-5.229 4.252-9.482 9.482-9.482z"/>
        </symbol>
        <symbol id="icon-phone" viewBox="0 0 32 32">
            <path d="M24.143 16.891a1.652 1.652 0 0 0-1.788-.356c-.199.083-.38.204-.532.356l-2.616 2.616c-1.213-.361-3.476-1.182-4.91-2.616s-2.255-3.697-2.616-4.91l2.616-2.616a1.65 1.65 0 0 0 .481-1.16 1.63 1.63 0 0 0-.481-1.16L7.733.481A1.648 1.648 0 0 0 5.945.125c-.199.082-.38.204-.532.356l-4.45 4.45a3.28 3.28 0 0 0-.962 2.355c.038 2.337.656 10.453 7.053 16.85s14.513 7.014 16.852 7.053h.046c.866 0 1.685-.341 2.306-.962l4.45-4.45a1.64 1.64 0 0 0 .356-1.788 1.6 1.6 0 0 0-.356-.532zm-.208 11.015c-2.048-.034-9.055-.584-14.561-6.091C3.85 16.291 3.315 9.259 3.283 7.252l3.29-3.29 4.244 4.244-2.122 2.122a1.65 1.65 0 0 0-.447 1.497c.039.189 1.003 4.664 3.727 7.388s7.199 3.687 7.388 3.727a1.63 1.63 0 0 0 1.496-.445l2.123-2.122 4.244 4.244-3.292 3.29z"/>
        </symbol>
        <symbol id="icon-stars1" viewBox="0 0 195 32">
            <path d="M15.277 1.031c.579-1.375 2.551-1.375 3.13 0l3.417 8.116c.244.58.796.976 1.43 1.026l8.869.702c1.503.119 2.112 1.972.967 2.941l-6.757 5.718a1.66 1.66 0 0 0-.546 1.66l2.064 8.55c.35 1.449-1.245 2.594-2.532 1.817l-7.593-4.582a1.71 1.71 0 0 0-1.767 0l-7.593 4.582c-1.287.776-2.882-.369-2.532-1.817l2.064-8.55a1.66 1.66 0 0 0-.546-1.66L.595 13.816c-1.145-.969-.536-2.822.967-2.941l8.869-.702a1.69 1.69 0 0 0 1.429-1.026zM55.698 1.031c.579-1.375 2.551-1.375 3.13 0l3.417 8.116c.244.58.796.976 1.43 1.026l8.869.702c1.503.119 2.112 1.972.967 2.941l-6.757 5.718a1.66 1.66 0 0 0-.546 1.66l2.064 8.55c.35 1.449-1.245 2.594-2.532 1.817l-7.593-4.582a1.71 1.71 0 0 0-1.767 0l-7.593 4.582c-1.287.776-2.882-.369-2.532-1.817l2.065-8.55a1.66 1.66 0 0 0-.546-1.66l-6.757-5.718c-1.145-.969-.536-2.822.967-2.941l8.869-.702a1.69 1.69 0 0 0 1.429-1.026zM96.119 1.031c.579-1.375 2.551-1.375 3.13 0l3.417 8.116c.244.58.796.976 1.43 1.026l8.869.702c1.503.119 2.112 1.972.967 2.941l-6.757 5.718a1.66 1.66 0 0 0-.546 1.66l2.064 8.55c.35 1.449-1.245 2.594-2.532 1.817l-7.593-4.582a1.71 1.71 0 0 0-1.767 0l-7.593 4.582c-1.287.776-2.882-.369-2.532-1.817l2.064-8.55a1.66 1.66 0 0 0-.546-1.66l-6.757-5.718c-1.145-.969-.536-2.822.967-2.941l8.869-.702a1.69 1.69 0 0 0 1.429-1.026zM136.54 1.031c.579-1.375 2.551-1.375 3.13 0l3.417 8.116c.244.58.796.976 1.43 1.026l8.869.702c1.503.119 2.112 1.972.967 2.941l-6.757 5.718a1.66 1.66 0 0 0-.546 1.66l2.064 8.55c.35 1.449-1.245 2.594-2.532 1.817l-7.593-4.582a1.71 1.71 0 0 0-1.767 0l-7.593 4.582c-1.287.776-2.882-.369-2.532-1.817l2.064-8.55a1.66 1.66 0 0 0-.546-1.66l-6.757-5.718c-1.145-.969-.536-2.822.967-2.941l8.869-.702a1.69 1.69 0 0 0 1.429-1.026z"/>
            <path fill="none" stroke="#0b0803" stroke-width="1.684" d="M177.736 1.359c.29-.688 1.29-.688 1.58 0l3.416 8.115a2.54 2.54 0 0 0 2.141 1.539l8.867.702c.771.061 1.048.986.49 1.457l-6.757 5.719a2.51 2.51 0 0 0-.822 2.502l2.067 8.549c.167.694-.61 1.303-1.28.898h-.002l-7.591-4.581a2.55 2.55 0 0 0-2.637 0l-7.592 4.581c-.67.405-1.447-.204-1.28-.898l2.066-8.549a2.51 2.51 0 0 0-.822-2.502l-6.757-5.719a.827.827 0 0 1 .49-1.457l8.868-.702a2.54 2.54 0 0 0 2.141-1.539l3.416-8.115z" style="stroke:var(--color1, #0b0803)"/>
        </symbol>
        <symbol id="icon-stars2" viewBox="0 0 195 32">
            <path d="M15.277 1.031c.579-1.375 2.551-1.375 3.13 0l3.417 8.116c.244.58.796.976 1.43 1.026l8.869.702c1.503.119 2.112 1.972.967 2.941l-6.757 5.718a1.66 1.66 0 0 0-.546 1.66l2.064 8.55c.35 1.449-1.245 2.594-2.532 1.817l-7.593-4.582a1.71 1.71 0 0 0-1.767 0l-7.593 4.582c-1.287.776-2.882-.369-2.532-1.817l2.064-8.55a1.66 1.66 0 0 0-.546-1.66L.595 13.816c-1.145-.969-.536-2.822.967-2.941l8.869-.702a1.69 1.69 0 0 0 1.429-1.026zM55.698 1.031c.579-1.375 2.551-1.375 3.13 0l3.417 8.116c.244.58.796.976 1.43 1.026l8.869.702c1.503.119 2.112 1.972.967 2.941l-6.757 5.718a1.66 1.66 0 0 0-.546 1.66l2.064 8.55c.35 1.449-1.245 2.594-2.532 1.817l-7.593-4.582a1.71 1.71 0 0 0-1.767 0l-7.593 4.582c-1.287.776-2.882-.369-2.532-1.817l2.065-8.55a1.66 1.66 0 0 0-.546-1.66l-6.757-5.718c-1.145-.969-.536-2.822.967-2.941l8.869-.702a1.69 1.69 0 0 0 1.429-1.026zM96.119 1.031c.579-1.375 2.551-1.375 3.13 0l3.417 8.116c.244.58.796.976 1.43 1.026l8.869.702c1.503.119 2.112 1.972.967 2.941l-6.757 5.718a1.66 1.66 0 0 0-.546 1.66l2.064 8.55c.35 1.449-1.245 2.594-2.532 1.817l-7.593-4.582a1.71 1.71 0 0 0-1.767 0l-7.593 4.582c-1.287.776-2.882-.369-2.532-1.817l2.064-8.55a1.66 1.66 0 0 0-.546-1.66l-6.757-5.718c-1.145-.969-.536-2.822.967-2.941l8.869-.702a1.69 1.69 0 0 0 1.429-1.026zM136.54 1.031c.579-1.375 2.551-1.375 3.13 0l3.417 8.116c.244.58.796.976 1.43 1.026l8.869.702c1.503.119 2.112 1.972.967 2.941l-6.757 5.718a1.66 1.66 0 0 0-.546 1.66l2.065 8.55c.35 1.449-1.245 2.594-2.532 1.817l-7.593-4.582a1.71 1.71 0 0 0-1.767 0l-7.593 4.582c-1.286.776-2.882-.369-2.532-1.817l2.064-8.55a1.66 1.66 0 0 0-.546-1.66l-6.757-5.718c-1.145-.969-.536-2.822.967-2.941l8.869-.702a1.69 1.69 0 0 0 1.429-1.026l3.417-8.116z"/>
            <path fill="none" stroke="#0b0803" stroke-width="1.684" d="M177.736 1.359c.29-.688 1.29-.688 1.58 0l3.416 8.115a2.54 2.54 0 0 0 2.139 1.539l8.869.702a.828.828 0 0 1 .49 1.457l-6.759 5.719a2.51 2.51 0 0 0-.82 2.502l2.067 8.549c.167.694-.61 1.303-1.28.898h-.002l-7.591-4.581a2.55 2.55 0 0 0-2.637 0l-7.592 4.581c-.67.405-1.447-.204-1.28-.898l2.067-8.549a2.51 2.51 0 0 0-.822-2.502l-6.758-5.719a.827.827 0 0 1 .49-1.457l8.868-.702a2.54 2.54 0 0 0 2.141-1.539l3.416-8.115z" style="stroke:var(--color1, #0b0803)"/>
        </symbol>
        <symbol id="icon-stars3" viewBox="0 0 195 32">
            <path d="M15.277 1.031c.579-1.375 2.551-1.375 3.13 0l3.417 8.116c.244.58.796.976 1.43 1.026l8.869.702c1.503.119 2.112 1.972.967 2.941l-6.757 5.718a1.66 1.66 0 0 0-.546 1.66l2.064 8.55c.35 1.449-1.245 2.594-2.532 1.817l-7.593-4.582a1.71 1.71 0 0 0-1.767 0l-7.593 4.582c-1.287.776-2.882-.369-2.532-1.817l2.064-8.55a1.66 1.66 0 0 0-.546-1.66L.595 13.816c-1.145-.969-.536-2.822.967-2.941l8.869-.702a1.69 1.69 0 0 0 1.429-1.026zM55.698 1.031c.579-1.375 2.551-1.375 3.13 0l3.417 8.116c.244.58.796.976 1.43 1.026l8.869.702c1.503.119 2.112 1.972.967 2.941l-6.757 5.718a1.66 1.66 0 0 0-.546 1.66l2.064 8.55c.35 1.449-1.245 2.594-2.532 1.817l-7.593-4.582a1.71 1.71 0 0 0-1.767 0l-7.593 4.582c-1.287.776-2.882-.369-2.532-1.817l2.065-8.55a1.66 1.66 0 0 0-.546-1.66l-6.757-5.718c-1.145-.969-.536-2.822.967-2.941l8.869-.702a1.69 1.69 0 0 0 1.429-1.026zM96.119 1.031c.579-1.375 2.551-1.375 3.13 0l3.417 8.116c.244.58.796.976 1.43 1.026l8.869.702c1.503.119 2.112 1.972.967 2.941l-6.757 5.718a1.66 1.66 0 0 0-.546 1.66l2.064 8.55c.35 1.449-1.245 2.594-2.532 1.817l-7.593-4.582a1.71 1.71 0 0 0-1.767 0l-7.593 4.582c-1.287.776-2.882-.369-2.532-1.817l2.064-8.55a1.66 1.66 0 0 0-.546-1.66l-6.757-5.718c-1.145-.969-.536-2.822.967-2.941l8.869-.702a1.69 1.69 0 0 0 1.429-1.026zM136.54 1.031c.579-1.375 2.551-1.375 3.13 0l3.417 8.116c.244.58.796.976 1.43 1.026l8.869.702c1.503.119 2.112 1.972.967 2.941l-6.757 5.718a1.66 1.66 0 0 0-.546 1.66l2.065 8.55c.35 1.449-1.245 2.594-2.532 1.817l-7.593-4.582a1.71 1.71 0 0 0-1.767 0l-7.593 4.582c-1.286.776-2.882-.369-2.532-1.817l2.064-8.55a1.66 1.66 0 0 0-.546-1.66l-6.757-5.718c-1.145-.969-.536-2.822.967-2.941l8.869-.702a1.69 1.69 0 0 0 1.429-1.026l3.417-8.116zM176.962 1.031c.578-1.375 2.55-1.375 3.129 0l3.417 8.116c.244.58.795.976 1.428 1.026l8.869.702c1.504.119 2.112 1.972.968 2.941l-6.757 5.718a1.66 1.66 0 0 0-.547 1.66l2.065 8.55c.35 1.449-1.245 2.594-2.531 1.817l-7.594-4.582a1.71 1.71 0 0 0-1.767 0l-7.592 4.582c-1.287.776-2.882-.369-2.532-1.817l2.064-8.55a1.66 1.66 0 0 0-.546-1.66l-6.757-5.718c-1.145-.969-.536-2.822.967-2.941l8.869-.702a1.69 1.69 0 0 0 1.43-1.026z"/>
        </symbol>
        <symbol id="icon-stars4" viewBox="0 0 195 32">
            <path d="M15.277 1.031c.579-1.375 2.551-1.375 3.13 0l3.417 8.116c.244.58.796.976 1.43 1.026l8.869.702c1.503.119 2.112 1.972.967 2.941l-6.757 5.718a1.66 1.66 0 0 0-.546 1.66l2.064 8.55c.35 1.449-1.245 2.594-2.532 1.817l-7.593-4.582a1.71 1.71 0 0 0-1.767 0l-7.593 4.582c-1.287.776-2.882-.369-2.532-1.817l2.064-8.55a1.66 1.66 0 0 0-.546-1.66L.595 13.816c-1.145-.969-.536-2.822.967-2.941l8.869-.702a1.69 1.69 0 0 0 1.429-1.026zM55.698 1.031c.579-1.375 2.551-1.375 3.13 0l3.417 8.116c.244.58.796.976 1.43 1.026l8.869.702c1.503.119 2.112 1.972.967 2.941l-6.757 5.718a1.66 1.66 0 0 0-.546 1.66l2.064 8.55c.35 1.449-1.245 2.594-2.532 1.817l-7.593-4.582a1.71 1.71 0 0 0-1.767 0l-7.593 4.582c-1.287.776-2.882-.369-2.532-1.817l2.065-8.55a1.66 1.66 0 0 0-.546-1.66l-6.757-5.718c-1.145-.969-.536-2.822.967-2.941l8.869-.702a1.69 1.69 0 0 0 1.429-1.026zM96.119 1.031c.579-1.375 2.551-1.375 3.13 0l3.417 8.116c.244.58.796.976 1.43 1.026l8.869.702c1.503.119 2.112 1.972.967 2.941l-6.757 5.718a1.66 1.66 0 0 0-.546 1.66l2.064 8.55c.35 1.449-1.245 2.594-2.532 1.817l-7.593-4.582a1.71 1.71 0 0 0-1.767 0l-7.593 4.582c-1.287.776-2.882-.369-2.532-1.817l2.064-8.55a1.66 1.66 0 0 0-.546-1.66l-6.757-5.718c-1.145-.969-.536-2.822.967-2.941l8.869-.702a1.69 1.69 0 0 0 1.429-1.026z"/>
            <path stroke-width="1.684" d="M137.315 1.359c.29-.688 1.289-.688 1.579 0l3.416 8.115a2.54 2.54 0 0 0 2.14 1.539l8.869.702a.828.828 0 0 1 .49 1.457l-6.758 5.719a2.51 2.51 0 0 0-.821 2.502l2.066 8.549c.167.694-.609 1.303-1.28.898h-.002l-7.59-4.581a2.56 2.56 0 0 0-2.638 0l-7.592 4.581c-.671.405-1.447-.204-1.279-.898l2.066-8.549a2.51 2.51 0 0 0-.821-2.502l-6.758-5.719a.827.827 0 0 1 .49-1.457l8.868-.702a2.54 2.54 0 0 0 2.14-1.539zM177.736 1.359c.29-.688 1.29-.688 1.58 0l3.416 8.115a2.54 2.54 0 0 0 2.139 1.539l8.869.702a.828.828 0 0 1 .49 1.457l-6.759 5.719a2.51 2.51 0 0 0-.82 2.502l2.067 8.549c.167.694-.61 1.303-1.28.898h-.002l-7.591-4.581a2.55 2.55 0 0 0-2.637 0l-7.592 4.581c-.67.405-1.447-.204-1.28-.898l2.067-8.549a2.51 2.51 0 0 0-.822-2.502l-6.758-5.719a.827.827 0 0 1 .49-1.457l8.868-.702a2.54 2.54 0 0 0 2.141-1.539l3.416-8.115z"/>
        </symbol>
        <symbol id="icon-stars5" viewBox="0 0 195 32">
            <path d="M15.277 1.031c.579-1.375 2.551-1.375 3.13 0l3.417 8.116c.244.58.796.976 1.43 1.026l8.869.702c1.503.119 2.112 1.972.967 2.941l-6.757 5.718a1.66 1.66 0 0 0-.546 1.66l2.064 8.55c.35 1.449-1.245 2.594-2.532 1.817l-7.593-4.582a1.71 1.71 0 0 0-1.767 0l-7.593 4.582c-1.287.776-2.882-.369-2.532-1.817l2.064-8.55a1.66 1.66 0 0 0-.546-1.66L.595 13.816c-1.145-.969-.536-2.822.967-2.941l8.869-.702a1.69 1.69 0 0 0 1.429-1.026zM55.698 1.031c.579-1.375 2.551-1.375 3.13 0l3.417 8.116c.244.58.796.976 1.43 1.026l8.869.702c1.503.119 2.112 1.972.967 2.941l-6.757 5.718a1.66 1.66 0 0 0-.546 1.66l2.064 8.55c.35 1.449-1.245 2.594-2.532 1.817l-7.593-4.582a1.71 1.71 0 0 0-1.767 0l-7.593 4.582c-1.287.776-2.882-.369-2.532-1.817l2.065-8.55a1.66 1.66 0 0 0-.546-1.66l-6.757-5.718c-1.145-.969-.536-2.822.967-2.941l8.869-.702a1.69 1.69 0 0 0 1.429-1.026zM96.119 1.031c.579-1.375 2.551-1.375 3.13 0l3.417 8.116c.244.58.796.976 1.43 1.026l8.869.702c1.503.119 2.112 1.972.967 2.941l-6.757 5.718a1.66 1.66 0 0 0-.546 1.66l2.064 8.55c.35 1.449-1.245 2.594-2.532 1.817l-7.593-4.582a1.71 1.71 0 0 0-1.767 0l-7.593 4.582c-1.287.776-2.882-.369-2.532-1.817l2.064-8.55a1.66 1.66 0 0 0-.546-1.66l-6.757-5.718c-1.145-.969-.536-2.822.967-2.941l8.869-.702a1.69 1.69 0 0 0 1.429-1.026zM136.54 1.031c.579-1.375 2.551-1.375 3.13 0l3.417 8.116c.244.58.796.976 1.43 1.026l8.869.702c1.503.119 2.112 1.972.967 2.941l-6.757 5.718a1.66 1.66 0 0 0-.546 1.66l2.064 8.55c.35 1.449-1.245 2.594-2.532 1.817l-7.593-4.582a1.71 1.71 0 0 0-1.767 0l-7.593 4.582c-1.287.776-2.882-.369-2.532-1.817l2.064-8.55a1.66 1.66 0 0 0-.546-1.66l-6.757-5.718c-1.145-.969-.536-2.822.967-2.941l8.869-.702a1.69 1.69 0 0 0 1.429-1.026zM176.962 1.031c.579-1.375 2.55-1.375 3.129 0l3.417 8.116c.244.58.797.976 1.43 1.026l8.869.702c1.502.119 2.112 1.972.967 2.941l-6.757 5.718a1.66 1.66 0 0 0-.546 1.66l2.063 8.55c.35 1.449-1.245 2.594-2.531 1.817l-7.592-4.582a1.72 1.72 0 0 0-1.768 0l-7.592 4.582c-1.287.776-2.882-.369-2.532-1.817l2.064-8.55a1.66 1.66 0 0 0-.546-1.66l-6.757-5.718c-1.145-.969-.536-2.822.967-2.941l8.869-.702a1.69 1.69 0 0 0 1.43-1.026z"/>
        </symbol>
        <symbol id="icon-stars6" viewBox="0 0 195 32">
            <path d="M15.277 1.031c.579-1.375 2.551-1.375 3.13 0l3.417 8.116c.244.58.796.976 1.43 1.026l8.869.702c1.503.119 2.112 1.972.967 2.941l-6.757 5.718a1.66 1.66 0 0 0-.546 1.66l2.064 8.55c.35 1.449-1.245 2.594-2.532 1.817l-7.593-4.582a1.71 1.71 0 0 0-1.767 0l-7.593 4.582c-1.287.776-2.882-.369-2.532-1.817l2.064-8.55a1.66 1.66 0 0 0-.546-1.66L.595 13.816c-1.145-.969-.536-2.822.967-2.941l8.869-.702a1.69 1.69 0 0 0 1.429-1.026zM55.698 1.031c.579-1.375 2.551-1.375 3.13 0l3.417 8.116c.244.58.796.976 1.43 1.026l8.869.702c1.503.119 2.112 1.972.967 2.941l-6.757 5.718a1.66 1.66 0 0 0-.546 1.66l2.064 8.55c.35 1.449-1.245 2.594-2.532 1.817l-7.593-4.582a1.71 1.71 0 0 0-1.767 0l-7.593 4.582c-1.287.776-2.882-.369-2.532-1.817l2.065-8.55a1.66 1.66 0 0 0-.546-1.66l-6.757-5.718c-1.145-.969-.536-2.822.967-2.941l8.869-.702a1.69 1.69 0 0 0 1.429-1.026zM96.119 1.031c.579-1.375 2.551-1.375 3.13 0l3.417 8.116c.244.58.796.976 1.43 1.026l8.869.702c1.503.119 2.112 1.972.967 2.941l-6.757 5.718a1.66 1.66 0 0 0-.546 1.66l2.064 8.55c.35 1.449-1.245 2.594-2.532 1.817l-7.593-4.582a1.71 1.71 0 0 0-1.767 0l-7.593 4.582c-1.287.776-2.882-.369-2.532-1.817l2.064-8.55a1.66 1.66 0 0 0-.546-1.66l-6.757-5.718c-1.145-.969-.536-2.822.967-2.941l8.869-.702a1.69 1.69 0 0 0 1.429-1.026z"/>
            <path fill="none" stroke="#0b0803" stroke-width="1.684" d="M137.315 1.359c.29-.688 1.289-.688 1.579 0l3.416 8.115a2.54 2.54 0 0 0 2.14 1.539l8.869.702a.828.828 0 0 1 .49 1.457l-6.758 5.719a2.51 2.51 0 0 0-.821 2.502l2.066 8.549c.167.694-.609 1.303-1.28.898h-.002l-7.59-4.581a2.56 2.56 0 0 0-2.638 0l-7.592 4.581c-.671.405-1.447-.204-1.279-.898l2.066-8.549a2.51 2.51 0 0 0-.821-2.502l-6.758-5.719a.827.827 0 0 1 .49-1.457l8.868-.702a2.54 2.54 0 0 0 2.14-1.539zM177.736 1.359c.29-.688 1.29-.688 1.58 0l3.416 8.115a2.54 2.54 0 0 0 2.139 1.539l8.869.702a.828.828 0 0 1 .49 1.457l-6.759 5.719a2.51 2.51 0 0 0-.82 2.502l2.067 8.549c.167.694-.61 1.303-1.28.898h-.002l-7.591-4.581a2.55 2.55 0 0 0-2.637 0l-7.592 4.581c-.67.405-1.447-.204-1.28-.898l2.067-8.549a2.51 2.51 0 0 0-.822-2.502l-6.758-5.719a.827.827 0 0 1 .49-1.457l8.868-.702a2.54 2.54 0 0 0 2.141-1.539l3.416-8.115z" style="stroke:var(--color1, #0b0803)"/>
        </symbol>
        <symbol id="icon-stars7" viewBox="0 0 195 32">
            <path d="M15.277 1.031c.579-1.375 2.551-1.375 3.13 0l3.417 8.116c.244.58.796.976 1.43 1.026l8.869.702c1.503.119 2.112 1.972.967 2.941l-6.757 5.718a1.66 1.66 0 0 0-.546 1.66l2.064 8.55c.35 1.449-1.245 2.594-2.532 1.817l-7.593-4.582a1.71 1.71 0 0 0-1.767 0l-7.593 4.582c-1.287.776-2.882-.369-2.532-1.817l2.064-8.55a1.66 1.66 0 0 0-.546-1.66L.595 13.816c-1.145-.969-.536-2.822.967-2.941l8.869-.702a1.69 1.69 0 0 0 1.429-1.026zM55.698 1.031c.579-1.375 2.551-1.375 3.13 0l3.417 8.116c.244.58.796.976 1.43 1.026l8.869.702c1.503.119 2.112 1.972.967 2.941l-6.757 5.718a1.66 1.66 0 0 0-.546 1.66l2.064 8.55c.35 1.449-1.245 2.594-2.532 1.817l-7.593-4.582a1.71 1.71 0 0 0-1.767 0l-7.593 4.582c-1.287.776-2.882-.369-2.532-1.817l2.065-8.55a1.66 1.66 0 0 0-.546-1.66l-6.757-5.718c-1.145-.969-.536-2.822.967-2.941l8.869-.702a1.69 1.69 0 0 0 1.429-1.026zM96.119 1.031c.579-1.375 2.551-1.375 3.13 0l3.417 8.116c.244.58.796.976 1.43 1.026l8.869.702c1.503.119 2.112 1.972.967 2.941l-6.757 5.718a1.66 1.66 0 0 0-.546 1.66l2.064 8.55c.35 1.449-1.245 2.594-2.532 1.817l-7.593-4.582a1.71 1.71 0 0 0-1.767 0l-7.593 4.582c-1.287.776-2.882-.369-2.532-1.817l2.064-8.55a1.66 1.66 0 0 0-.546-1.66l-6.757-5.718c-1.145-.969-.536-2.822.967-2.941l8.869-.702a1.69 1.69 0 0 0 1.429-1.026zM136.54 1.031c.579-1.375 2.551-1.375 3.13 0l3.417 8.116c.244.58.796.976 1.43 1.026l8.869.702c1.503.119 2.112 1.972.967 2.941l-6.757 5.718a1.66 1.66 0 0 0-.546 1.66l2.065 8.55c.35 1.449-1.245 2.594-2.532 1.817l-7.593-4.582a1.71 1.71 0 0 0-1.767 0l-7.593 4.582c-1.286.776-2.882-.369-2.532-1.817l2.064-8.55a1.66 1.66 0 0 0-.546-1.66l-6.757-5.718c-1.145-.969-.536-2.822.967-2.941l8.869-.702a1.69 1.69 0 0 0 1.429-1.026l3.417-8.116z"/>
            <path fill="none" stroke="#0b0803" stroke-width="1.684" d="M177.736 1.359c.29-.688 1.29-.688 1.58 0l3.416 8.115a2.54 2.54 0 0 0 2.139 1.539l8.869.702a.828.828 0 0 1 .49 1.457l-6.759 5.719a2.51 2.51 0 0 0-.82 2.502l2.067 8.549c.167.694-.61 1.303-1.28.898h-.002l-7.591-4.581a2.55 2.55 0 0 0-2.637 0l-7.592 4.581c-.67.405-1.447-.204-1.28-.898l2.067-8.549a2.51 2.51 0 0 0-.822-2.502l-6.758-5.719a.827.827 0 0 1 .49-1.457l8.868-.702a2.54 2.54 0 0 0 2.141-1.539l3.416-8.115z" style="stroke:var(--color1, #0b0803)"/>
        </symbol>
        <symbol id="icon-stars8" viewBox="0 0 195 32">
            <path d="M15.277 1.031c.579-1.375 2.551-1.375 3.13 0l3.417 8.116c.244.58.796.976 1.43 1.026l8.869.702c1.503.119 2.112 1.972.967 2.941l-6.757 5.718a1.66 1.66 0 0 0-.546 1.66l2.064 8.55c.35 1.449-1.245 2.594-2.532 1.817l-7.593-4.582a1.71 1.71 0 0 0-1.767 0l-7.593 4.582c-1.287.776-2.882-.369-2.532-1.817l2.064-8.55a1.66 1.66 0 0 0-.546-1.66L.595 13.816c-1.145-.969-.536-2.822.967-2.941l8.869-.702a1.69 1.69 0 0 0 1.429-1.026zM55.698 1.031c.579-1.375 2.551-1.375 3.13 0l3.417 8.116c.244.58.796.976 1.43 1.026l8.869.702c1.503.119 2.112 1.972.967 2.941l-6.757 5.718a1.66 1.66 0 0 0-.546 1.66l2.064 8.55c.35 1.449-1.245 2.594-2.532 1.817l-7.593-4.582a1.71 1.71 0 0 0-1.767 0l-7.593 4.582c-1.287.776-2.882-.369-2.532-1.817l2.065-8.55a1.66 1.66 0 0 0-.546-1.66l-6.757-5.718c-1.145-.969-.536-2.822.967-2.941l8.869-.702a1.69 1.69 0 0 0 1.429-1.026zM96.119 1.031c.579-1.375 2.551-1.375 3.13 0l3.417 8.116c.244.58.796.976 1.43 1.026l8.869.702c1.503.119 2.112 1.972.967 2.941l-6.757 5.718a1.66 1.66 0 0 0-.546 1.66l2.064 8.55c.35 1.449-1.245 2.594-2.532 1.817l-7.593-4.582a1.71 1.71 0 0 0-1.767 0l-7.593 4.582c-1.287.776-2.882-.369-2.532-1.817l2.064-8.55a1.66 1.66 0 0 0-.546-1.66l-6.757-5.718c-1.145-.969-.536-2.822.967-2.941l8.869-.702a1.69 1.69 0 0 0 1.429-1.026zM136.54 1.031c.579-1.375 2.551-1.375 3.13 0l3.417 8.116c.244.58.796.976 1.43 1.026l8.869.702c1.503.119 2.112 1.972.967 2.941l-6.757 5.718a1.66 1.66 0 0 0-.546 1.66l2.065 8.55c.35 1.449-1.245 2.594-2.532 1.817l-7.593-4.582a1.71 1.71 0 0 0-1.767 0l-7.593 4.582c-1.286.776-2.882-.369-2.532-1.817l2.064-8.55a1.66 1.66 0 0 0-.546-1.66l-6.757-5.718c-1.145-.969-.536-2.822.967-2.941l8.869-.702a1.69 1.69 0 0 0 1.429-1.026l3.417-8.116z"/>
            <path fill="none" stroke="#0b0803" stroke-width="1.684" d="M177.736 1.359c.29-.688 1.29-.688 1.58 0l3.416 8.115a2.54 2.54 0 0 0 2.139 1.539l8.869.702a.828.828 0 0 1 .49 1.457l-6.759 5.719a2.51 2.51 0 0 0-.82 2.502l2.067 8.549c.167.694-.61 1.303-1.28.898h-.002l-7.591-4.581a2.55 2.55 0 0 0-2.637 0l-7.592 4.581c-.67.405-1.447-.204-1.28-.898l2.067-8.549a2.51 2.51 0 0 0-.822-2.502l-6.758-5.719a.827.827 0 0 1 .49-1.457l8.868-.702a2.54 2.54 0 0 0 2.141-1.539l3.416-8.115z" style="stroke:var(--color1, #0b0803)"/>
        </symbol>
        <symbol id="icon-logo" viewBox="0 0 56 32">
            <path d="M22.524 8.6a5.025 5.025 0 1 0-10.004.977A5.025 5.025 0 0 0 22.525 8.6zm-3.747-3.351c.061 0 .107.012.164.028l.012.003c.022.112 0 .164-.059.259a9 9 0 0 1-.331.486c-.201.282-.403.564-.541.886-.299.697-.23 1.51-.159 2.331.062.719.124 1.444-.06 2.104-.222.794-.778 1.313-1.474 1.7-.039.007-.081.003-.122 0l-.025-.002-.016-.001-.007-.013c-.04-.075-.042-.08-.013-.166.037-.111.111-.225.181-.333q.041-.062.076-.12c.242-.403.479-.839.554-1.31.093-.588.043-1.193-.006-1.797-.063-.767-.125-1.535.102-2.268.28-.9.935-1.37 1.723-1.789zM34.356 23.2a4.899 4.899 0 1 0-9.731 1.138 4.899 4.899 0 0 0 9.731-1.138m-5.424-3.171c.65-.048 1.258.11 1.782.5.848.631 1.281 1.673 1.424 2.694.152 1.077.137 2.573-.565 3.475-.383.492-.867.691-1.466.765a2.66 2.66 0 0 1-1.8-.482c-.825-.595-1.249-1.573-1.402-2.553-.175-1.116-.169-2.678.555-3.62.385-.501.866-.7 1.472-.778zM6.45.05c.872-.114 1.858-.025 2.706.189.516.13 1.03.307 1.558.381.303.043.621.039.927.045.05.849.213 2.883.115 3.63-.156.03-.276.022-.433 0-.161-.186-.237-.602-.333-.844a3.5 3.5 0 0 0-1.934-1.925c-1.101-.452-2.417-.394-3.502.075-1.14.493-2.069 1.478-2.522 2.633-.701 1.788-.696 4.083.09 5.843.545 1.22 1.515 2.293 2.784 2.769 1.211.455 2.528.32 3.688-.212.518-.264.997-.657 1.306-1.156.174-.282.303-.818.579-1l.077.03c.297.376.408 1.55.506 2.055-1.119.986-2.468 1.639-3.951 1.835-1.941.255-3.967-.137-5.535-1.347C1.148 11.949.281 10.218.067 8.444c-.249-2.062.206-4.142 1.511-5.783C2.78 1.149 4.549.265 6.452.047zM42.902 4.947c-.52-.129-1.148-.199-1.681-.133-1.243.122-2.306.601-3.114 1.576a5.33 5.33 0 0 0-1.182 3.9c.124 1.198.675 2.389 1.63 3.147 1.004.796 2.422 1.021 3.668.873 1.106-.131 2.086-.608 2.772-1.501.314-.408.542-.869.721-1.35l-.066-.064c-.106-.104-.215-.212-.358-.255l-.033.014a.17.17 0 0 0-.097.08c-.592.871-1.269 1.447-2.328 1.645-.825.154-1.646.012-2.338-.473a3.6 3.6 0 0 1-1.24-1.578c1.266-.751 2.642-1.511 4.099-1.809.288-.059.582-.092.875-.125.308-.035.615-.069.914-.134.2-.043.344-.084.412-.296.17-.533-.099-1.403-.367-1.862-.491-.84-1.352-1.423-2.288-1.655zm-1.288.847c.237.001.49.018.718.081.386.106.735.335.923.696.13.25.232.651.13.924-.086.23-.272.386-.477.508-.256.151-.563.248-.859.342q-.152.047-.295.096c-.517.179-1.026.373-1.519.612-.113.05-.255.14-.407.236-.285.18-.602.38-.817.377-.115-.096-.144-.176-.156-.32-.08-.958.306-2.047.925-2.771.454-.53 1.166-.726 1.834-.78zM52.214 4.855a5.7 5.7 0 0 0-1.111-.042c-1.261.103-2.328.563-3.154 1.545a5.31 5.31 0 0 0-1.211 3.904c.111 1.168.657 2.363 1.577 3.114.991.808 2.469 1.084 3.716.943 1.11-.126 2.107-.647 2.8-1.528.319-.409.569-.867.739-1.357l-.067-.06c-.115-.105-.251-.229-.396-.241-.594.894-1.305 1.524-2.382 1.741-.812.164-1.6.044-2.297-.418-.598-.397-1.033-.975-1.343-1.616 1.369-.931 3.053-1.645 4.68-1.946.202-.037.407-.053.612-.069.17-.013.339-.026.507-.052.219-.033.44-.083.489-.333.138-.704-.14-1.552-.556-2.118C54.19 5.468 53.25 5 52.214 4.856zm-1.202.973c.424-.034.837-.055 1.246.095.392.143.708.426.879.81.113.252.161.535.055.798a.9.9 0 0 1-.301.378c-.308.225-1.07.491-1.732.722-.327.114-.629.22-.841.308-.34.152-.669.336-.996.52q-.272.155-.547.3c-.154-.938-.057-1.894.453-2.716.422-.679 1.017-1.038 1.783-1.213zM19.573 16.109c1.004-.006 3.825-.131 4.586.07.064.087.058.089.05.198-.176.296-.551.415-.812.628a.95.95 0 0 0-.331.488c-.168.709-.102 1.528-.102 2.256l-.02 3.074c-.005.733.018 1.483-.068 2.212-.123 1.043-.583 2.012-1.426 2.662-1.05.81-2.517.99-3.801.816-1.124-.152-2.221-.639-2.921-1.562-.634-.837-.795-1.815-.66-2.838a3.3 3.3 0 0 1 .146-.528 2.49 2.49 0 0 1 1.339-1.433c.667-.286 1.508-.307 2.178-.018.326.14.531.381.651.715.073.204.097.379.004.577-.27.255-.878-.087-1.256.019a1.28 1.28 0 0 0-.782.658c-.29.549-.297 1.268-.089 1.846.185.515.603.931 1.095 1.159.585.27 1.407.338 2.018.111.473-.176.821-.552 1.012-1.014.165-.398.242-.856.28-1.283.087-.963.196-6.777-.016-7.406-.224-.663-.986-.683-1.161-1.087a.46.46 0 0 1 .049-.251l.038-.067zM40.318 26.881c.428-1.06.798-2.152 1.192-3.225.308-.836.688-1.7.876-2.57a1.1 1.1 0 0 0 .006-.554c-.158-.565-.887-.52-1.052-.956.023-.096.009-.137.101-.196.169-.108 3.144-.119 3.509-.073.121.015.208.043.288.14.008.21-.042.305-.231.412-.303.171-.688.258-.915.539-.357.443-1.702 4.23-2.034 5.091l-1.109 2.878c-.279.723-.541 1.508-.956 2.166-.252.398-.591.783-1.001 1.02-.599.345-1.36.408-2.022.222-.515-.145-.986-.464-1.233-.949-.195-.384-.243-.895-.1-1.303.107-.305.354-.558.648-.689.191-.085.502-.158.699-.051.469.255.163 1.097.343 1.546a.53.53 0 0 0 .303.319c.251.101.686-.037.912-.147.764-.373 1.085-1.573 1.339-2.315-.321.006-.691.045-1.007-.01a.5.5 0 0 1-.155-.047c-.105-.061-.172-.171-.226-.276-.249-.486-.418-1.051-.613-1.563l-1.212-3.191c-.239-.627-.455-1.281-.748-1.884-.218-.45-.51-.909-.959-1.157-.223-.123-.516-.121-.667-.345-.026-.152.001-.245.048-.39.804-.033 4.036-.117 4.63.049a.64.64 0 0 1-.007.382c-.071.177-.412.231-.569.294-.169.068-.316.171-.382.349-.072.197.024.513.081.712.246.872.643 1.734.97 2.583.409 1.06.777 2.16 1.253 3.191zM34.628.842c.714-.037 1.391.054 2.014.428.455.273.841.683.956 1.214.063.288.043.593-.125.844-.182.272-.55.484-.873.524-.194.024-.422-.002-.578-.128-.361-.292-.193-.81-.261-1.209a.73.73 0 0 0-.335-.512 1.42 1.42 0 0 0-1.039-.146c-.279.077-.479.274-.608.528-.409.807-.182 1.861.07 2.677.856.021 1.716.004 2.573.003.002.363-.004.721-.032 1.083-.827-.001-1.656-.013-2.483.018-.053.85-.032 1.714-.037 2.566-.008 1.275-.133 2.683.159 3.924q.064.17.153.331c.258.469.416.419.875.57.156.051.247.115.315.261a.4.4 0 0 1-.098.269c-.041.026-.057.041-.11.05-.166.032-4.158.014-4.384-.023-.155-.026-.264-.06-.362-.192.064-.377.484-.35.736-.594.289-.279.434-.653.514-1.04.175-.842.107-1.795.104-2.655l-.016-3.479-1.633-.006c-.033-.359-.035-.722-.045-1.083l1.626-.001a4.3 4.3 0 0 1-.194-.75 2.85 2.85 0 0 1 .533-2.123c.614-.809 1.601-1.222 2.585-1.35z"/>
            <path d="M27.871.843c.658-.055 1.29-.007 1.88.316.471.258.874.684 1.019 1.212.09.327.099.741-.085 1.038a.86.86 0 0 1-.589.379c-.218.041-.507.04-.69-.106-.346-.277-.114-.81-.191-1.178-.046-.221-.225-.409-.418-.515-.305-.167-.744-.188-1.074-.088a.97.97 0 0 0-.606.518c-.364.743-.088 1.882.162 2.622.82.049 1.658.011 2.48.015.021.367.002.726-.02 1.092q-1.252-.003-2.505.009a71 71 0 0 0-.046 3.133c-.003 1.076-.11 2.285.206 3.323.347.76 1.067.888 1.237 1.294-.026.074-.015.087-.089.13-.263.157-4.261.127-4.618.041-.014-.049-.032-.105-.034-.155-.011-.317.489-.45.681-.64.267-.264.4-.753.462-1.117.139-.818.095-1.72.094-2.549l-.007-3.463-1.628-.007c-.025-.361-.024-.721-.023-1.083q.779.009 1.558-.002c-.08-.265-.165-.53-.206-.804-.111-.745.051-1.482.507-2.088.612-.814 1.565-1.191 2.545-1.329z"/>
        </symbol>
        <symbol id="icon-arrow" viewBox="0 0 35 32">
            <path d="m13.333 3.787 11.533 11.44-11.533 11.44 3.755 3.787L32.44 15.227 17.088 0z"/>
            <path d="M3.755 0 0 3.787l11.533 11.44L0 26.667l3.755 3.787 15.352-15.227z"/>
        </symbol>
        <symbol id="icon-location" viewBox="0 0 32 32">
            <path d="m16 24 1.6-3.2v-8.227c2.754-.715 4.8-3.2 4.8-6.173C22.4 2.87 19.53 0 16 0S9.6 2.87 9.6 6.4c0 2.973 2.046 5.458 4.8 6.173V20.8zM12.8 6.4c0-1.765 1.435-3.2 3.2-3.2s3.2 1.435 3.2 3.2-1.435 3.2-3.2 3.2-3.2-1.435-3.2-3.2"/>
            <path d="m22.827 13.701-.853 3.085C26.12 17.932 28.8 20.135 28.8 22.4c0 3.027-5.256 6.4-12.8 6.4S3.2 25.427 3.2 22.4c0-2.266 2.68-4.469 6.827-5.616l-.853-3.085C3.515 15.264 0 18.597 0 22.4 0 27.782 7.029 32 16 32s16-4.218 16-9.6c0-3.803-3.515-7.136-9.173-8.699"/>
        </symbol>
        <symbol id="icon-chevron" viewBox="0 0 24 24">
            <path d="M9.70697 16.9492L15.414 11.2422L9.70697 5.53516L8.29297 6.94916L12.586 11.2422L8.29297 15.5352L9.70697 16.9492Z" fill="#0B0803" />
        </symbol>
    </defs>
</svg>